<?xml version="1.0" standalone="no"?>
<!DOCTYPE svg PUBLIC "-//W3C//DTD SVG 20010904//EN"
 "http://www.w3.org/TR/2001/REC-SVG-20010904/DTD/svg10.dtd">
<svg version="1.0" xmlns="http://www.w3.org/2000/svg"
 width="500.000000pt" height="500.000000pt" viewBox="0 0 500.000000 500.000000"
 preserveAspectRatio="xMidYMid meet">

<g transform="translate(0.000000,500.000000) scale(0.100000,-0.100000)"
fill="#000000" stroke="none">
<path d="M195 4526 c42 -19 79 -58 95 -103 22 -60 27 -1541 5 -1644 -17 -85
-36 -115 -90 -146 l-38 -21 259 -4 c251 -4 262 -5 344 -32 87 -28 300 -124
300 -135 0 -3 -21 -19 -46 -35 -63 -40 -171 -148 -221 -221 -123 -182 -184
-403 -169 -610 17 -227 91 -392 245 -546 135 -134 299 -225 502 -279 297 -78
584 -65 1399 64 697 110 985 127 1355 80 289 -37 573 -138 742 -266 36 -27 65
-42 69 -37 8 14 -15 38 -118 125 -283 237 -540 337 -906 351 -287 11 -495 -21
-1100 -167 -355 -85 -581 -132 -737 -151 -153 -19 -431 -16 -545 5 -492 91
-780 401 -780 838 0 201 56 421 144 572 34 58 124 156 186 201 l49 36 36 -23
36 -23 -3 -395 c-3 -349 -6 -400 -21 -440 -19 -48 -62 -100 -83 -100 -7 0 -16
-4 -19 -10 -4 -7 81 -10 247 -10 l253 0 -34 21 c-93 57 -101 94 -101 471 l0
303 107 -52 c145 -70 219 -88 363 -87 138 2 209 18 339 80 51 24 95 44 97 44
2 0 4 -124 4 -276 0 -323 -11 -398 -64 -449 -17 -16 -40 -35 -51 -42 -16 -9
32 -12 229 -12 l250 -1 -42 35 c-27 24 -47 53 -61 91 -21 54 -21 71 -21 848 0
686 2 799 15 837 18 49 37 74 80 100 30 19 28 19 -214 19 l-244 0 40 -29 c75
-55 77 -64 81 -565 l3 -439 -53 45 c-193 163 -408 238 -678 239 -59 0 -123 -3
-143 -6 l-37 -7 0 293 c0 362 8 396 95 450 30 19 28 19 -215 19 l-245 0 36
-24 c78 -53 89 -117 89 -501 l0 -303 -30 -10 c-25 -9 -47 -4 -163 43 -152 61
-252 89 -384 106 l-93 13 0 841 c0 720 2 849 15 899 19 71 44 108 87 129 31
16 20 17 -222 16 -220 0 -251 -2 -225 -13z m1692 -2012 c91 -18 204 -65 288
-119 85 -53 185 -134 185 -149 0 -7 -33 -21 -72 -32 -59 -15 -105 -19 -243
-19 -197 1 -248 11 -464 96 l-131 51 0 89 0 88 43 5 c23 3 56 8 72 10 56 8
243 -3 322 -20z"/>
</g>
</svg>
